
<svg width="205px" height="129px" viewBox="0 0 205 129" version="1.1" xmlns="http://www.w3.org/2000/svg" xmlns:xlink="http://www.w3.org/1999/xlink">
    <g id="Page-1" stroke="none" stroke-width="1" fill="none" fill-rule="evenodd">
        <g id="Group" transform="translate(0.840000, 0.000000)" fill="#381529" fill-rule="nonzero">
            <path d="M69.74,40.51 L74.85,40.51 L74.85,5.73 L69.74,5.73 L69.74,5.22 L83.5,5.22 L83.5,5.73 L78.39,5.73 L78.39,40.51 L83.5,40.51 L83.5,41.02 L69.74,41.02 L69.74,40.51 L69.74,40.51 Z M76.19,21.84 L82.33,21.84 L82.33,22.35 L76.19,22.35 L76.19,21.84 Z M79.92,22.2 L92.76,5.73 L86.83,5.73 L86.83,5.22 L99.26,5.22 L99.26,5.73 L94.15,5.73 L82.39,19.74 L97.99,40.5 L101.57,40.5 L101.57,41.01 L93.9,41.01 L79.94,22.19 L79.92,22.2 Z" id="Shape"></path>
            <path d="M103.94,40.94 C103.02,40.45 102.32,39.76 101.84,38.87 C101.36,37.98 101.12,37 101.12,35.9 C101.12,34.06 101.8,32.64 103.17,31.65 C104.53,30.66 106.4,29.91 108.77,29.4 C111.14,28.89 114.9,28.26 120.05,27.51 L120.05,28.07 C116.23,28.68 113.29,29.24 111.23,29.73 C109.17,30.23 107.55,30.91 106.37,31.78 C105.19,32.65 104.61,33.83 104.61,35.33 C104.61,36.49 104.99,37.47 105.76,38.27 C106.53,39.07 107.71,39.47 109.31,39.47 C110.91,39.47 112.56,39.09 114.35,38.34 C116.14,37.59 118.04,36.57 120.05,35.27 L120.05,35.48 C117.77,37.56 115.51,39.11 113.27,40.13 C111.04,41.15 109.03,41.66 107.26,41.66 C105.96,41.66 104.86,41.41 103.94,40.92 L103.94,40.94 Z M119.46,40.4 C118.83,39.68 118.51,38.59 118.51,37.13 L118.51,18.26 C118.51,15.98 118.08,14.19 117.21,12.92 C116.34,11.64 115.05,11 113.35,11 C111.54,11 110.1,11.74 109.03,13.22 C107.96,14.7 107.24,16.52 106.88,18.67 C106.52,20.82 106.45,22.91 106.65,24.96 L103.17,25.52 C103.03,22.25 103.43,19.47 104.37,17.18 C105.31,14.9 106.66,13.17 108.44,12.01 C110.21,10.85 112.29,10.27 114.68,10.27 C116.35,10.27 117.7,10.59 118.72,11.22 C119.74,11.85 120.5,12.86 121,14.24 C121.49,15.62 121.74,17.49 121.74,19.84 L121.74,36.77 C121.74,37.83 121.94,38.62 122.35,39.15 C122.76,39.68 123.32,39.94 124.04,39.94 C124.93,39.94 125.91,39.56 127.01,38.79 C128.1,38.02 129.14,36.99 130.13,35.7 L130.54,36.06 C129.28,37.73 127.87,39.05 126.32,40.02 C124.77,40.99 123.33,41.48 122,41.48 C120.94,41.48 120.1,41.12 119.47,40.41 L119.46,40.4 Z" id="Shape"></path>
            <path d="M133.68,39.61 C132.47,38.37 131.86,36.43 131.86,33.8 L131.86,12.68 L125.57,12.68 L135.08,5.26 L135.08,10.94 L144.95,10.94 L144.75,12.68 L135.08,12.68 L135.08,33.85 C135.08,36.07 135.49,37.73 136.31,38.84 C137.13,39.95 138.27,40.5 139.74,40.5 C140.76,40.5 141.78,40.24 142.78,39.71 C143.79,39.18 144.8,38.47 145.82,37.59 L146.18,38 C144.92,39.16 143.66,40.03 142.4,40.61 C141.14,41.19 139.81,41.48 138.41,41.48 C136.47,41.48 134.89,40.86 133.68,39.61 L133.68,39.61 Z" id="Path"></path>
            <path d="M148.19,45.44 C149.18,44.43 149.83,43.49 150.13,42.6 C150.44,41.71 150.59,40.49 150.59,38.92 L150.59,11.3 L146.19,12.02 L146.09,11.51 L153.86,10.28 L153.86,35.54 C153.86,37.65 153.63,39.32 153.17,40.55 C152.71,41.78 151.8,43.05 150.43,44.36 C149.07,45.67 146.75,47.54 143.47,49.96 L143.21,49.55 C145.53,47.81 147.18,46.44 148.17,45.43 L148.19,45.44 Z M150.05,4.5 C149.56,3.99 149.31,3.37 149.31,2.66 C149.31,1.95 149.56,1.32 150.05,0.79 C150.54,0.26 151.18,0 151.97,0 C152.76,0 153.34,0.26 153.84,0.79 C154.33,1.32 154.58,1.94 154.58,2.66 C154.58,3.38 154.33,3.99 153.84,4.5 C153.35,5.01 152.72,5.27 151.97,5.27 C151.22,5.27 150.55,5.01 150.05,4.5 Z" id="Shape"></path>
            <path d="M159.33,40.94 C158.41,40.45 157.71,39.76 157.23,38.87 C156.75,37.98 156.51,37 156.51,35.9 C156.51,34.06 157.19,32.64 158.56,31.65 C159.92,30.66 161.79,29.91 164.16,29.4 C166.53,28.89 170.29,28.26 175.44,27.51 L175.44,28.07 C171.62,28.68 168.68,29.24 166.62,29.73 C164.56,30.23 162.94,30.91 161.76,31.78 C160.58,32.65 160,33.83 160,35.33 C160,36.49 160.38,37.47 161.15,38.27 C161.92,39.07 163.1,39.47 164.7,39.47 C166.3,39.47 167.95,39.09 169.74,38.34 C171.53,37.59 173.43,36.57 175.44,35.27 L175.44,35.48 C173.16,37.56 170.9,39.11 168.66,40.13 C166.43,41.15 164.42,41.66 162.65,41.66 C161.35,41.66 160.25,41.41 159.33,40.92 L159.33,40.94 Z M174.85,40.4 C174.22,39.68 173.9,38.59 173.9,37.13 L173.9,18.26 C173.9,15.98 173.47,14.19 172.6,12.92 C171.73,11.64 170.44,11 168.74,11 C166.93,11 165.49,11.74 164.42,13.22 C163.35,14.7 162.63,16.52 162.27,18.67 C161.91,20.82 161.84,22.91 162.04,24.96 L158.56,25.52 C158.42,22.25 158.82,19.47 159.76,17.18 C160.7,14.9 162.05,13.17 163.83,12.01 C165.6,10.85 167.68,10.27 170.07,10.27 C171.74,10.27 173.09,10.59 174.11,11.22 C175.13,11.85 175.89,12.86 176.39,14.24 C176.88,15.62 177.13,17.49 177.13,19.84 L177.13,36.77 C177.13,37.83 177.33,38.62 177.74,39.15 C178.15,39.68 178.71,39.94 179.43,39.94 C180.32,39.94 181.3,39.56 182.4,38.79 C183.49,38.02 184.53,36.99 185.52,35.7 L185.93,36.06 C184.67,37.73 183.26,39.05 181.71,40.02 C180.16,40.99 178.72,41.48 177.39,41.48 C176.33,41.48 175.49,41.12 174.86,40.41 L174.85,40.4 Z" id="Shape"></path>
            <path d="M4.96,80.59 C3.48,79.75 2.28,78.5 1.37,76.85 C0.46,75.2 -2.84217094e-14,73.25 -2.84217094e-14,71 L3.37,70.1 C3.37,72.01 3.69,73.81 4.33,75.52 C4.97,77.23 5.86,78.61 7,79.66 C8.14,80.71 9.42,81.24 10.84,81.24 C12.01,81.24 13.03,80.93 13.91,80.32 C14.79,79.71 15.47,78.89 15.96,77.86 C16.44,76.84 16.69,75.75 16.69,74.61 C16.69,73.22 16.32,72 15.58,70.96 C14.84,69.92 13.94,69.07 12.87,68.4 C11.8,67.73 10.39,66.96 8.62,66.07 C6.88,65.19 5.5,64.43 4.48,63.79 C3.46,63.15 2.59,62.34 1.88,61.36 C1.17,60.38 0.81,59.23 0.81,57.92 C0.81,56.5 1.19,55.22 1.94,54.1 C2.69,52.98 3.71,52.11 4.99,51.5 C6.27,50.89 7.68,50.58 9.22,50.58 C10.9,50.58 12.47,50.97 13.92,51.75 C15.37,52.53 16.57,53.74 17.51,55.36 C18.45,56.98 18.98,59 19.09,61.42 L15.63,61.42 C15.49,59.11 15.02,57.19 14.24,55.63 C13.46,54.08 12.52,52.93 11.42,52.19 C10.32,51.45 9.22,51.08 8.11,51.08 C6.71,51.08 5.64,51.59 4.89,52.6 C4.14,53.61 3.76,54.81 3.76,56.21 C3.76,57.49 4.11,58.6 4.81,59.54 C5.51,60.48 6.36,61.26 7.37,61.89 C8.38,62.52 9.74,63.26 11.45,64.11 C13.27,64.94 14.73,65.7 15.83,66.39 C16.93,67.09 17.84,67.96 18.58,69.02 C19.32,70.07 19.69,71.35 19.69,72.86 C19.69,74.54 19.23,76.06 18.3,77.43 C17.37,78.8 16.14,79.87 14.59,80.65 C13.04,81.43 11.39,81.82 9.66,81.82 C7.93,81.82 6.44,81.4 4.96,80.56 L4.96,80.59 Z" id="Path"></path>
            <path d="M25.51,79.99 C24.1,78.95 23.03,77.54 22.31,75.76 C21.58,73.98 21.22,71.98 21.22,69.76 C21.22,67.37 21.63,65.06 22.46,62.82 C23.29,60.59 24.45,58.78 25.96,57.4 C27.47,56.02 29.16,55.33 31.04,55.33 C32.8,55.33 34.16,55.95 35.1,57.19 C36.04,58.43 36.66,59.92 36.96,61.67 C37.26,63.42 37.44,65.44 37.49,67.71 L34.24,67.71 C34.21,64.86 34.1,62.62 33.92,60.98 C33.73,59.34 33.37,58.08 32.83,57.2 C32.29,56.32 31.48,55.88 30.4,55.88 C29.15,55.88 28.04,56.43 27.09,57.52 C26.14,58.62 25.42,60.07 24.93,61.9 C24.45,63.72 24.2,65.69 24.2,67.79 C24.2,70.29 24.56,72.43 25.27,74.2 C25.98,75.97 26.92,77.29 28.09,78.19 C29.26,79.09 30.57,79.53 32.02,79.53 C33.59,79.53 35.02,79.01 36.33,77.97 C37.64,76.93 38.66,75.53 39.4,73.76 L39.78,73.93 C38.78,76.41 37.5,78.29 35.94,79.59 C34.37,80.89 32.55,81.53 30.47,81.53 C28.56,81.53 26.9,81.01 25.5,79.97 L25.51,79.99 Z" id="Path"></path>
            <path d="M38.69,80.74 L42.79,80.74 L42.79,47.26 L38.78,47.9 L38.69,47.47 L45.86,46.32 L45.86,80.74 L49.96,80.74 L49.96,81.17 L38.69,81.17 L38.69,80.74 L38.69,80.74 Z M51.71,80.74 L55.81,80.74 L55.81,62.42 C55.81,61.25 55.73,60.32 55.55,59.62 C55.38,58.92 55.07,58.4 54.61,58.04 C54.15,57.68 53.51,57.51 52.69,57.51 C51.38,57.51 50.01,57.97 48.59,58.9 C47.17,59.83 45.73,61.2 44.28,63.02 L44.28,62.42 C45.87,60.23 47.58,58.5 49.4,57.23 C51.22,55.96 52.99,55.33 54.69,55.33 C55.77,55.33 56.62,55.59 57.23,56.12 C57.84,56.65 58.27,57.39 58.51,58.36 C58.75,59.33 58.87,60.62 58.87,62.25 L58.87,80.74 L62.41,80.74 L62.41,81.17 L51.69,81.17 L51.69,80.74 L51.71,80.74 Z" id="Shape"></path>
            <path d="M66.35,79.86 C65.64,78.74 65.28,76.99 65.28,74.63 L65.28,56.23 L60.97,56.91 L60.88,56.48 L68.35,55.33 L68.35,74.46 C68.35,76.14 68.61,77.38 69.12,78.17 C69.63,78.97 70.43,79.37 71.51,79.37 C72.79,79.37 74.15,78.89 75.59,77.92 C77.03,76.95 78.44,75.6 79.84,73.86 L79.84,74.41 C78.3,76.57 76.61,78.3 74.76,79.6 C72.91,80.9 71.17,81.54 69.55,81.54 C68.13,81.54 67.06,80.98 66.35,79.85 L66.35,79.86 Z M78.05,56.23 L73.78,56.91 L73.69,56.48 L81.12,55.33 L81.12,80.56 L85.43,79.88 L85.52,80.35 L78.05,81.54 L78.05,56.22 L78.05,56.23 Z" id="Shape"></path>
            <polygon id="Path" points="86.29 80.74 90.39 80.74 90.39 47.26 86.08 47.94 85.99 47.51 93.46 46.31 93.46 80.73 97.52 80.73 97.52 81.16 86.29 81.16 86.29 80.73"></polygon>
            <path d="M104.21,56.76 C102.64,57.06 101.6,57.69 101.07,58.66 C100.54,59.63 100.28,61.27 100.28,63.57 L99.77,63.57 L99.77,55.88 L116.04,55.88 L102.16,80.73 C105.95,80.73 108.66,80.53 110.32,80.13 C111.97,79.73 113.18,78.91 113.95,77.65 C114.72,76.4 115.32,74.29 115.74,71.33 L116.25,71.33 L115.01,81.15 L98.44,81.15 L112.19,56.3 C108.43,56.3 105.77,56.45 104.2,56.75 L104.21,56.76 Z" id="Path"></path>
            <path d="M121.78,79.99 C120.37,78.95 119.3,77.54 118.58,75.76 C117.85,73.98 117.49,71.98 117.49,69.76 C117.49,67.37 117.9,65.06 118.73,62.82 C119.56,60.59 120.72,58.78 122.23,57.4 C123.74,56.02 125.43,55.33 127.31,55.33 C128.79,55.33 129.99,55.79 130.9,56.7 C131.81,57.61 132.49,58.75 132.93,60.11 C133.37,61.48 133.63,62.94 133.72,64.51 L119.29,64.51 L119.46,63.91 L130.65,63.91 C130.59,61.06 130.25,59.01 129.63,57.76 C129,56.51 128.02,55.88 126.68,55.88 C125.43,55.88 124.32,56.43 123.37,57.52 C122.42,58.62 121.7,60.08 121.21,61.92 C120.73,63.76 120.48,65.71 120.48,67.79 C120.48,70.29 120.84,72.43 121.55,74.2 C122.26,75.97 123.21,77.29 124.39,78.19 C125.57,79.09 126.87,79.53 128.3,79.53 C129.87,79.53 131.3,79.01 132.59,77.97 C133.89,76.93 134.92,75.53 135.69,73.76 L136.07,73.93 C135.07,76.41 133.79,78.29 132.23,79.59 C130.66,80.89 128.84,81.53 126.76,81.53 C124.85,81.53 123.19,81.01 121.79,79.97 L121.78,79.99 Z" id="Path"></path>
            <polygon id="Path" points="142.05 62.65 182.85 62.65 182.34 64.53 141.54 64.53"></polygon>
            <path d="M13.62,119.69 C11.56,118.24 9.91,116.3 8.69,113.88 C7.47,111.46 6.85,108.88 6.85,106.15 C6.85,103.42 7.45,100.9 8.64,98.51 C9.84,96.12 11.44,94.21 13.46,92.77 C15.48,91.33 17.66,90.61 19.99,90.61 C22.32,90.61 24.52,91.34 26.57,92.79 C28.62,94.24 30.26,96.17 31.5,98.58 C32.74,100.99 33.36,103.57 33.36,106.33 C33.36,109.09 32.75,111.54 31.54,113.93 C30.33,116.32 28.71,118.24 26.69,119.7 C24.67,121.15 22.51,121.88 20.2,121.88 C17.89,121.88 15.67,121.15 13.6,119.7 L13.62,119.69 Z M25.58,119.63 C26.85,118.53 27.86,117.01 28.63,115.06 C29.4,113.11 29.78,110.93 29.78,108.51 C29.78,105.75 29.27,103.03 28.26,100.35 C27.25,97.67 25.89,95.49 24.18,93.8 C22.47,92.11 20.64,91.26 18.67,91.26 C17.25,91.26 15.9,91.81 14.64,92.9 C13.37,94 12.36,95.52 11.59,97.47 C10.82,99.42 10.44,101.63 10.44,104.11 C10.44,106.84 10.94,109.54 11.96,112.2 C12.97,114.86 14.33,117.04 16.04,118.73 C17.75,120.42 19.58,121.27 21.55,121.27 C22.97,121.27 24.32,120.72 25.58,119.63 L25.58,119.63 Z" id="Shape"></path>
            <path d="M39.08,120.01 C37.67,118.97 36.6,117.56 35.88,115.78 C35.15,114 34.79,112 34.79,109.78 C34.79,107.39 35.2,105.08 36.03,102.84 C36.86,100.61 38.02,98.8 39.53,97.42 C41.04,96.04 42.73,95.35 44.61,95.35 C46.09,95.35 47.29,95.81 48.2,96.72 C49.11,97.63 49.79,98.77 50.23,100.13 C50.67,101.5 50.93,102.96 51.02,104.53 L36.59,104.53 L36.76,103.93 L47.95,103.93 C47.89,101.08 47.55,99.03 46.93,97.78 C46.3,96.53 45.32,95.9 43.98,95.9 C42.73,95.9 41.62,96.45 40.67,97.54 C39.72,98.64 39,100.1 38.51,101.94 C38.03,103.78 37.78,105.73 37.78,107.81 C37.78,110.31 38.14,112.45 38.85,114.22 C39.56,115.99 40.51,117.31 41.69,118.21 C42.87,119.11 44.17,119.55 45.6,119.55 C47.17,119.55 48.6,119.03 49.89,117.99 C51.19,116.95 52.22,115.55 52.99,113.78 L53.37,113.95 C52.37,116.43 51.09,118.31 49.53,119.61 C47.96,120.91 46.14,121.55 44.06,121.55 C42.15,121.55 40.49,121.03 39.09,119.99 L39.08,120.01 Z" id="Path"></path>
            <path d="M58.12,120.01 C56.71,118.97 55.64,117.56 54.92,115.78 C54.19,114 53.83,112 53.83,109.78 C53.83,107.39 54.24,105.08 55.07,102.84 C55.9,100.61 57.06,98.8 58.57,97.42 C60.08,96.04 61.77,95.35 63.65,95.35 C65.41,95.35 66.77,95.97 67.71,97.21 C68.65,98.45 69.27,99.94 69.57,101.69 C69.87,103.44 70.05,105.46 70.1,107.73 L66.85,107.73 C66.82,104.88 66.71,102.64 66.53,101 C66.34,99.36 65.98,98.1 65.44,97.22 C64.9,96.34 64.09,95.9 63.01,95.9 C61.76,95.9 60.65,96.45 59.7,97.54 C58.75,98.64 58.03,100.09 57.54,101.92 C57.06,103.74 56.81,105.71 56.81,107.81 C56.81,110.31 57.17,112.45 57.88,114.22 C58.59,115.99 59.53,117.31 60.7,118.21 C61.87,119.11 63.18,119.55 64.63,119.55 C66.2,119.55 67.63,119.03 68.94,117.99 C70.25,116.95 71.27,115.55 72.01,113.78 L72.39,113.95 C71.39,116.43 70.11,118.31 68.55,119.61 C66.98,120.91 65.16,121.55 63.08,121.55 C61.17,121.55 59.51,121.03 58.11,119.99 L58.12,120.01 Z" id="Path"></path>
            <path d="M71.3,120.76 L75.4,120.76 L75.4,87.28 L71.39,87.92 L71.3,87.49 L78.47,86.34 L78.47,120.76 L82.57,120.76 L82.57,121.19 L71.3,121.19 L71.3,120.76 L71.3,120.76 Z M84.32,120.76 L88.42,120.76 L88.42,102.44 C88.42,101.27 88.34,100.34 88.16,99.64 C87.99,98.94 87.68,98.42 87.22,98.06 C86.76,97.7 86.12,97.53 85.3,97.53 C83.99,97.53 82.62,97.99 81.2,98.92 C79.78,99.85 78.34,101.22 76.89,103.04 L76.89,102.44 C78.48,100.25 80.19,98.52 82.01,97.25 C83.83,95.98 85.6,95.35 87.3,95.35 C88.38,95.35 89.23,95.61 89.84,96.14 C90.45,96.67 90.88,97.41 91.12,98.38 C91.36,99.35 91.48,100.64 91.48,102.27 L91.48,120.76 L95.02,120.76 L95.02,121.19 L84.3,121.19 L84.3,120.76 L84.32,120.76 Z" id="Shape"></path>
            <path d="M100.19,120.03 C99.18,119.01 98.67,117.4 98.67,115.2 L98.67,97.44 L93.38,97.44 L101.71,90.65 L101.71,95.9 L109.87,95.9 L109.66,97.44 L101.72,97.44 L101.72,115.25 C101.72,117.13 102.04,118.51 102.68,119.39 C103.32,120.27 104.22,120.71 105.39,120.71 C106.27,120.71 107.15,120.49 108.04,120.05 C108.92,119.61 109.79,118.99 110.64,118.19 L110.94,118.53 C109.86,119.53 108.78,120.28 107.69,120.79 C106.61,121.3 105.47,121.56 104.27,121.56 C102.56,121.56 101.2,121.05 100.19,120.02 L100.19,120.03 Z" id="Path"></path>
            <path d="M115.06,120.01 C113.65,118.97 112.58,117.56 111.86,115.78 C111.13,114 110.77,112 110.77,109.78 C110.77,107.39 111.18,105.08 112.01,102.84 C112.84,100.61 114,98.8 115.51,97.42 C117.02,96.04 118.71,95.35 120.59,95.35 C122.07,95.35 123.27,95.81 124.18,96.72 C125.09,97.63 125.77,98.77 126.21,100.13 C126.65,101.5 126.91,102.96 127,104.53 L112.57,104.53 L112.74,103.93 L123.93,103.93 C123.87,101.08 123.53,99.03 122.91,97.78 C122.28,96.53 121.3,95.9 119.96,95.9 C118.71,95.9 117.6,96.45 116.65,97.54 C115.7,98.64 114.98,100.1 114.49,101.94 C114.01,103.78 113.76,105.73 113.76,107.81 C113.76,110.31 114.12,112.45 114.83,114.22 C115.54,115.99 116.49,117.31 117.67,118.21 C118.85,119.11 120.15,119.55 121.58,119.55 C123.15,119.55 124.58,119.03 125.87,117.99 C127.17,116.95 128.2,115.55 128.97,113.78 L129.35,113.95 C128.35,116.43 127.07,118.31 125.51,119.61 C123.94,120.91 122.12,121.55 120.04,121.55 C118.13,121.55 116.47,121.03 115.07,119.99 L115.06,120.01 Z" id="Path"></path>
            <path d="M128.26,120.76 L132.36,120.76 L132.36,96.25 L128.35,96.89 L128.26,96.46 L135.43,95.35 L135.43,120.76 L140.55,120.76 L140.55,121.19 L128.25,121.19 L128.25,120.76 L128.26,120.76 Z M137.03,100.6 C137.9,99.06 138.89,97.87 140,97.01 C141.11,96.15 142.42,95.73 143.93,95.73 L145.17,95.73 L144.79,98.68 L142.95,98.68 C141.38,98.68 140.07,99.06 139,99.83 C137.93,100.6 137.05,101.63 136.35,102.93 C135.65,104.23 135,105.83 134.41,107.73 L134.41,106.49 C135.29,104.1 136.17,102.13 137.04,100.6 L137.03,100.6 Z" id="Shape"></path>
            <path d="M146.47,120.76 L150.57,120.76 L150.57,96.25 L146.56,96.89 L146.47,96.46 L153.64,95.35 L153.64,120.76 L157.74,120.76 L157.74,121.19 L146.47,121.19 L146.47,120.76 L146.47,120.76 Z M150.27,90.74 C149.84,90.28 149.63,89.74 149.63,89.12 C149.63,88.5 149.85,87.95 150.29,87.48 C150.73,87.01 151.29,86.78 151.98,86.78 C152.67,86.78 153.19,87.02 153.65,87.48 C154.11,87.95 154.33,88.5 154.33,89.12 C154.33,89.74 154.11,90.29 153.67,90.74 C153.23,91.2 152.67,91.42 151.98,91.42 C151.29,91.42 150.7,91.19 150.27,90.74 L150.27,90.74 Z" id="Shape"></path>
            <path d="M158.67,120.76 L162.77,120.76 L162.77,96.25 L158.76,96.89 L158.67,96.46 L165.84,95.35 L165.84,120.76 L169.94,120.76 L169.94,121.19 L158.67,121.19 L158.67,120.76 L158.67,120.76 Z M171.7,120.76 L175.8,120.76 L175.8,102.44 C175.8,101.27 175.72,100.34 175.54,99.64 C175.37,98.94 175.06,98.42 174.6,98.06 C174.14,97.7 173.5,97.53 172.68,97.53 C171.37,97.53 170,97.99 168.58,98.92 C167.16,99.85 165.72,101.22 164.27,103.04 L164.27,102.44 C165.86,100.25 167.57,98.52 169.39,97.25 C171.21,95.98 172.98,95.35 174.68,95.35 C175.76,95.35 176.61,95.61 177.22,96.14 C177.83,96.67 178.26,97.41 178.5,98.38 C178.74,99.35 178.86,100.64 178.86,102.27 L178.86,120.76 L182.4,120.76 L182.4,121.19 L171.68,121.19 L171.68,120.76 L171.7,120.76 Z" id="Shape"></path>
            <path d="M186.16,128.59 C184.89,128.32 183.87,127.86 183.09,127.22 C182.31,126.58 181.92,125.76 181.92,124.76 C181.92,123.51 182.43,122.42 183.46,121.51 C184.49,120.6 185.79,119.72 187.39,118.86 L187.99,118.99 C186.77,119.56 185.85,120.19 185.24,120.89 C184.63,121.59 184.32,122.32 184.32,123.09 C184.32,124.29 185,125.16 186.35,125.72 C187.7,126.27 189.63,126.55 192.14,126.55 C193.96,126.55 195.69,126.4 197.33,126.1 C198.97,125.8 200.31,125.36 201.36,124.78 C202.41,124.2 202.94,123.48 202.94,122.62 C202.94,121.76 202.49,121.14 201.6,120.66 C200.7,120.18 199.43,119.93 197.78,119.93 L189.11,119.93 C188,119.93 187.03,119.77 186.21,119.46 C185.38,119.15 184.76,118.7 184.33,118.12 C183.9,117.54 183.69,116.87 183.69,116.13 C183.69,115.13 184.1,114.15 184.91,113.18 C185.72,112.21 187,111.39 188.73,110.7 L188.86,110.87 C187.89,111.47 187.19,112.07 186.75,112.69 C186.31,113.3 186.09,113.91 186.09,114.5 C186.09,115.27 186.45,115.9 187.18,116.38 C187.91,116.86 188.88,117.11 190.1,117.11 L197.36,117.11 C198.9,117.11 200.1,117.19 200.97,117.34 C201.84,117.5 202.54,117.84 203.06,118.36 C203.59,118.89 203.85,119.68 203.85,120.73 C203.85,122.32 203.29,123.75 202.16,125.02 C201.04,126.29 199.46,127.26 197.44,127.94 C195.42,128.62 193.1,128.96 190.48,128.96 C188.89,128.96 187.46,128.82 186.19,128.55 L186.16,128.59 Z M187.74,111.21 C186.44,110.46 185.45,109.46 184.75,108.22 C184.05,106.98 183.7,105.67 183.7,104.27 C183.7,102.87 184.07,101.4 184.81,100.02 C185.55,98.64 186.62,97.52 188.01,96.65 C189.4,95.78 191.03,95.35 192.88,95.35 C194.56,95.35 196.04,95.73 197.32,96.5 C198.6,97.27 199.6,98.27 200.31,99.51 C201.02,100.75 201.38,102.06 201.38,103.46 C201.38,104.86 201,106.32 200.25,107.69 C199.5,109.06 198.42,110.17 197.03,111.04 C195.63,111.91 194.03,112.34 192.2,112.34 C190.52,112.34 189.03,111.96 187.74,111.21 L187.74,111.21 Z M196.79,109.76 C197.63,108.41 198.05,106.65 198.05,104.49 C198.05,102.7 197.77,101.15 197.2,99.86 C196.63,98.56 195.88,97.58 194.96,96.91 C194.03,96.24 193.02,95.91 191.91,95.91 C190.32,95.91 189.11,96.59 188.28,97.94 C187.45,99.29 187.04,101.05 187.04,103.21 C187.04,105 187.31,106.55 187.85,107.84 C188.39,109.14 189.13,110.12 190.07,110.79 C191.01,111.46 192.03,111.79 193.14,111.79 C194.73,111.79 195.95,111.11 196.79,109.76 L196.79,109.76 Z M198.1,95.14 C199.04,95 199.66,94.71 199.96,94.29 C200.26,93.87 200.44,93.04 200.49,91.81 L204.16,91.81 C204.02,93.35 203.68,94.44 203.14,95.1 C202.6,95.76 201.8,96.1 200.75,96.15 C199.7,96.19 198.13,96.09 196.05,95.83 C195.14,95.69 194.09,95.55 192.89,95.4 L192.89,95.36 C195.42,95.36 197.16,95.29 198.1,95.15 L198.1,95.14 Z" id="Shape"></path>
        </g>
    </g>
</svg>
