<?xml version="1.0" encoding="UTF-8"?><svg id="Ebene_2" xmlns="http://www.w3.org/2000/svg" viewBox="0 0 210 78.42"><defs><style>.cls-1{fill:#381529;}</style></defs><g id="Ebene_1-2"><path class="cls-1" d="M175.82,19.85h2.26V6.65h-2.87l.09-.71h2.78c.43-1.26.84-2.3,1.25-3.13.41-.83.94-1.51,1.59-2.03s1.46-.78,2.42-.78h1.6l-.24,1.98h-2.52c-1.19,0-2.05.32-2.57.97-.52.64-.64,1.3-.37,1.98s.83,1.01,1.66,1.01h3.58l-.09.71h-4.27v13.2h2.81v.24h-7.12v-.24Z"/><path class="cls-1" d="M188.02,19.35c-.43-.63-.65-1.61-.65-2.95V6.2l-2.38.38-.05-.24,4.48-.71v10.58c0,.9.15,1.56.45,1.99.3.43.75.65,1.34.65.68,0,1.41-.27,2.22-.81.8-.54,1.59-1.31,2.36-2.3v.26c-.83,1.29-1.79,2.33-2.87,3.11-1.08.78-2.1,1.18-3.04,1.18-.8,0-1.42-.31-1.85-.94ZM188.47,3.68c-.24-.25-.37-.56-.37-.92s.12-.67.37-.92c.24-.25.56-.38.95-.38.36,0,.67.13.92.39.25.26.38.56.38.91,0,.36-.12.67-.36.92-.24.25-.55.38-.93.38s-.71-.13-.95-.38ZM194.7,6.2l-2.38.38-.05-.24,4.48-.71v14.1l2.38-.38.05.24-4.48.71V6.2ZM193.1,3.68c-.25-.25-.38-.56-.38-.92s.13-.65.38-.91c.25-.26.57-.39.94-.39s.69.13.94.39c.25.26.38.56.38.91,0,.36-.13.67-.38.92-.25.25-.57.38-.94.38s-.69-.13-.94-.38Z"/><path class="cls-1" d="M199.58,19.85h2.26V6.2l-2.38.38-.05-.24,4.48-.71v14.21h2.8v.24h-7.12v-.24ZM204.79,8.67c.5-.9,1.09-1.59,1.75-2.09.67-.49,1.44-.74,2.32-.74h1.13l-.26,1.98h-1.51c-.97,0-1.78.22-2.43.66-.65.44-1.15,1.01-1.52,1.72-.37.71-.7,1.57-.98,2.57l.02-.73c.47-1.35.96-2.48,1.46-3.37Z"/><path class="cls-1" d="M170.89,48.37c-.43-.63-.65-1.61-.65-2.95v-10.21l-2.38.38-.05-.24,4.48-.71v10.58c0,.9.15,1.56.45,1.99.3.43.75.65,1.34.65.68,0,1.41-.27,2.22-.81.8-.54,1.59-1.31,2.36-2.3v.26c-.83,1.29-1.79,2.33-2.87,3.11-1.08.78-2.1,1.18-3.04,1.18-.8,0-1.42-.31-1.85-.94ZM177.57,35.22l-2.38.38-.05-.24,4.48-.71v14.1l2.38-.38.05.24-4.48.71v-14.09Z"/><path class="cls-1" d="M182.45,48.86h2.26v-13.65l-2.38.38-.05-.24,4.48-.71v14.21h2.24v.24h-6.55v-.24ZM189.9,48.86h2.26v-10.14c0-.6-.05-1.09-.17-1.48-.11-.39-.29-.69-.55-.88-.26-.2-.61-.29-1.05-.29-.71,0-1.45.26-2.23.78s-1.57,1.3-2.37,2.36v-.28c.87-1.32,1.83-2.36,2.9-3.12,1.07-.76,2.09-1.14,3.06-1.14.57,0,1.03.14,1.39.41s.63.7.8,1.26c.17.57.26,1.31.26,2.22v10.32h1.96v.24h-6.27v-.24Z"/><path class="cls-1" d="M196.86,45.62c-.54-2.46-.15-4.9,1.17-7.33,1.32-2.43,3.2-3.64,5.63-3.64.63,0,1.15.09,1.57.27s.85.44,1.31.79l-.31,1.96c-.22-.5-.47-.95-.75-1.34s-.62-.71-1.02-.95-.86-.36-1.38-.36c-1.63,0-2.87,1.1-3.71,3.3-.84,2.2-.97,4.39-.4,6.55.57,2.17,1.8,3.25,3.69,3.25.49,0,.94-.08,1.37-.24.42-.16.8-.36,1.14-.6s.66-.52.98-.84v.33c-.53.49-1.05.91-1.53,1.26s-1.04.66-1.65.91c-.61.25-1.26.38-1.93.38-2.23,0-3.62-1.23-4.16-3.69ZM205.52,30.43l-2.38.38-.05-.24,4.48-.71v18.88l2.38-.38.05.24-4.48.71v-18.88Z"/><path class="cls-1" d="M0,19.84h2.36V3.81H0v-.24h5.59c1.4,0,2.67.21,3.82.64,1.15.42,2.05,1.01,2.7,1.75.65.75.98,1.58.98,2.51,0,.97-.37,1.85-1.11,2.62-.74.77-1.75,1.37-3.03,1.8-1.28.43-2.71.65-4.28.65v6.29h3.06v.24H0v-.24ZM7.77,12.69c.89-.42,1.57-.99,2.05-1.71.48-.72.72-1.53.72-2.43s-.23-1.68-.7-2.4c-.46-.72-1.1-1.29-1.9-1.71-.8-.42-1.7-.62-2.69-.62h-.59v9.5c1.18,0,2.21-.21,3.1-.63Z"/><path class="cls-1" d="M13.95,19.84h2.26V6.19l-2.38.38-.05-.24,4.48-.71v14.21h2.8v.24h-7.12v-.24ZM19.15,8.68c.49-.9,1.06-1.6,1.68-2.1.63-.49,1.35-.74,2.17-.74h.66l-.26,1.98h-1.04c-.91,0-1.67.22-2.27.66-.61.44-1.09,1.02-1.45,1.73-.36.71-.68,1.57-.97,2.56l.02-.73c.47-1.34.95-2.46,1.45-3.36Z"/><path class="cls-1" d="M24.54,19.84h2.26V6.19l-2.38.38-.05-.24,4.48-.71v14.21h2.24v.24h-6.55v-.24ZM26.73,3.33c-.27-.27-.4-.61-.4-1s.13-.71.4-1c.27-.29.61-.44,1.04-.44s.75.15,1.03.44c.27.29.41.62.41,1s-.13.73-.4,1-.61.41-1.04.41-.77-.14-1.04-.41Z"/><path class="cls-1" d="M32.1,6.17h-1.72v-.24h6.29v.24h-2.24l3.89,11.06,3.63-11.06h-2.5v-.24h4.74v.24h-1.74l-5.07,14.28h-.24l-5.04-14.28Z"/><path class="cls-1" d="M44.58,20.04c-.43-.23-.76-.54-.99-.94-.23-.4-.34-.85-.34-1.36,0-.85.34-1.51,1.01-2,.68-.49,1.61-.86,2.79-1.13,1.19-.27,2.9-.56,5.15-.87v.26c-1.49.2-2.72.43-3.69.68-.97.25-1.73.59-2.29,1.01-.56.42-.84.97-.84,1.65,0,.52.17.94.51,1.27.34.33.87.49,1.59.49.67,0,1.43-.15,2.26-.44.83-.29,1.65-.67,2.45-1.14v.07c-1.02.86-2.08,1.54-3.18,2.04-1.1.49-2.07.74-2.92.74-.58,0-1.09-.12-1.52-.34ZM51.7,19.78c-.32-.34-.48-.85-.48-1.54v-8.93c0-1.07-.18-1.89-.54-2.46s-.9-.86-1.6-.86c-.8,0-1.43.36-1.87,1.08-.45.72-.74,1.59-.87,2.59-.13,1.01-.16,1.95-.08,2.83l-2.21.38c0-1.82.26-3.27.79-4.34.53-1.07,1.21-1.82,2.04-2.25.83-.43,1.77-.65,2.8-.65.74,0,1.37.12,1.89.36.52.24.94.68,1.25,1.33.31.65.47,1.56.47,2.72v8.3c0,.39.08.69.25.88.17.2.4.29.7.29.39,0,.84-.18,1.33-.53s.97-.84,1.43-1.47l.21.17c-.6.82-1.28,1.46-2.05,1.92-.77.46-1.48.7-2.14.7-.53,0-.96-.17-1.28-.51Z"/><path class="cls-1" d="M59.06,19.45c-.57-.56-.85-1.45-.85-2.67V6.9h-2.92l4.93-4.34v3.37h4.41l-.12.97h-4.29v9.92c0,1.02.17,1.77.49,2.26.33.49.8.73,1.41.73.5,0,1.02-.14,1.54-.41.53-.27,1-.64,1.43-1.1l.19.19c-.6.6-1.21,1.05-1.85,1.34s-1.32.45-2.04.45c-.99,0-1.77-.28-2.33-.84Z"/><path class="cls-1" d="M68.01,19.37c-.79-.61-1.39-1.43-1.78-2.44-.39-1.01-.59-2.1-.59-3.26,0-1.32.24-2.6.72-3.84.48-1.24,1.15-2.25,2-3.03.86-.78,1.82-1.17,2.89-1.17.86,0,1.56.26,2.1.79.53.53.92,1.17,1.16,1.93.24.76.38,1.55.43,2.35h-8.13l.09-.33h5.99c0-1.63-.16-2.78-.48-3.44s-.84-.99-1.57-.99c-.63,0-1.19.29-1.67.88-.49.59-.86,1.38-1.12,2.37s-.39,2.08-.39,3.25c0,1.41.19,2.62.58,3.62.39,1,.9,1.75,1.54,2.26.65.51,1.36.77,2.15.77.86,0,1.65-.29,2.37-.87s1.28-1.33,1.68-2.24l.21.12c-.58,1.33-1.3,2.37-2.14,3.1-.85.73-1.89,1.1-3.11,1.1-1.15,0-2.12-.31-2.91-.92Z"/><path class="cls-1" d="M91.99,19.84h2.36V3.81h-2.36v-.24h5.59c1.4,0,2.67.21,3.82.64,1.15.42,2.05,1.01,2.7,1.75.65.75.98,1.58.98,2.51,0,.97-.37,1.85-1.11,2.62-.74.77-1.75,1.37-3.03,1.8-1.28.43-2.71.65-4.28.65v6.29h3.06v.24h-7.73v-.24ZM99.75,12.69c.89-.42,1.57-.99,2.05-1.71.48-.72.72-1.53.72-2.43s-.23-1.68-.7-2.4c-.46-.72-1.1-1.29-1.9-1.71-.8-.42-1.7-.62-2.69-.62h-.59v9.5c1.18,0,2.21-.21,3.1-.63Z"/><path class="cls-1" d="M105.94,19.84h2.26V6.19l-2.38.38-.05-.24,4.48-.71v14.21h2.8v.24h-7.12v-.24ZM111.15,8.67c.5-.9,1.09-1.59,1.75-2.09.67-.49,1.44-.74,2.32-.74h1.13l-.26,1.98h-1.51c-.97,0-1.78.22-2.43.66-.65.44-1.15,1.01-1.52,1.72-.37.71-.7,1.57-.98,2.57l.02-.73c.47-1.35.96-2.48,1.46-3.37Z"/><path class="cls-1" d="M117.45,20.04c-.43-.23-.76-.54-.99-.94-.23-.4-.34-.85-.34-1.36,0-.85.34-1.51,1.01-2,.68-.49,1.61-.86,2.79-1.13,1.19-.27,2.9-.56,5.15-.87v.26c-1.49.2-2.72.43-3.69.68-.97.25-1.73.59-2.29,1.01-.56.42-.84.97-.84,1.65,0,.52.17.94.51,1.27.34.33.87.49,1.59.49.67,0,1.43-.15,2.26-.44.83-.29,1.65-.67,2.45-1.14v.07c-1.02.86-2.08,1.54-3.18,2.04-1.1.49-2.07.74-2.92.74-.58,0-1.09-.12-1.52-.34ZM124.57,19.78c-.32-.34-.48-.85-.48-1.54v-8.93c0-1.07-.18-1.89-.54-2.46s-.9-.86-1.6-.86c-.8,0-1.43.36-1.87,1.08-.45.72-.74,1.59-.87,2.59-.13,1.01-.16,1.95-.08,2.83l-2.21.38c0-1.82.26-3.27.79-4.34.53-1.07,1.21-1.82,2.04-2.25.83-.43,1.77-.65,2.8-.65.74,0,1.37.12,1.89.36.52.24.94.68,1.25,1.33.31.65.47,1.56.47,2.72v8.3c0,.39.08.69.25.88.17.2.4.29.7.29.39,0,.84-.18,1.33-.53s.97-.84,1.43-1.47l.21.17c-.6.82-1.28,1.46-2.05,1.92-.77.46-1.48.7-2.14.7-.53,0-.96-.17-1.28-.51Z"/><path class="cls-1" d="M136.04,19.84h2.19l-8.13-13.67h-1.93v-.24h6.58v.24h-2.24l8.13,13.67h1.93v.24h-6.53v-.24ZM129.04,19.84h1.93l3.86-6.95.12.09-3.42,6.86h1.96v.24h-4.46v-.24ZM135.42,12.02l2.83-5.85h-1.91v-.24h4.41v.24h-1.96l-3.18,5.87-.19-.02Z"/><path class="cls-1" d="M142.5,19.84h2.26V6.19l-2.38.38-.05-.24,4.48-.71v14.21h2.24v.24h-6.55v-.24ZM144.69,3.33c-.27-.27-.4-.61-.4-1s.13-.71.4-1c.27-.29.61-.44,1.04-.44s.75.15,1.03.44c.27.29.41.62.41,1s-.13.73-.4,1-.61.41-1.04.41-.77-.14-1.04-.41Z"/><path class="cls-1" d="M152.02,19.72c-.74-.38-1.34-.94-1.8-1.68-.46-.75-.7-1.65-.7-2.72l2.08-.49c0,.99.16,1.87.47,2.65s.74,1.38,1.27,1.82,1.11.65,1.72.65c.74,0,1.33-.29,1.78-.86.45-.57.67-1.24.67-1.99,0-.65-.17-1.19-.51-1.64-.34-.45-.76-.82-1.26-1.11s-1.16-.62-1.98-.98c-.87-.39-1.55-.74-2.05-1.04-.5-.3-.93-.68-1.27-1.14-.35-.46-.52-1.03-.52-1.71,0-.72.2-1.38.6-1.97s.94-1.05,1.6-1.38c.67-.33,1.37-.49,2.11-.49.82,0,1.57.2,2.26.61.69.41,1.26,1,1.72,1.79.46.79.74,1.71.85,2.78h-2.14c-.14-1-.38-1.88-.72-2.62s-.74-1.3-1.2-1.7c-.46-.39-.94-.59-1.43-.59-.55,0-1,.22-1.34.67-.35.45-.52,1.03-.52,1.73s.17,1.27.51,1.73.76.83,1.26,1.11c.5.27,1.17.59,2,.93.85.36,1.53.68,2.04.97.51.28.94.66,1.29,1.14.34.48.52,1.08.52,1.8,0,.87-.25,1.62-.74,2.28s-1.13,1.15-1.9,1.5c-.77.35-1.55.52-2.33.52s-1.6-.19-2.33-.56Z"/><path class="cls-1" d="M0,48.86h2.36v-16.03H0v-.24h5.59c1.4,0,2.67.21,3.82.64,1.15.42,2.05,1.01,2.7,1.75.65.75.98,1.58.98,2.51,0,.97-.37,1.85-1.11,2.62-.74.77-1.75,1.37-3.03,1.8-1.28.43-2.71.65-4.28.65v6.29h3.06v.24H0v-.24ZM7.77,41.7c.89-.42,1.57-.99,2.05-1.71.48-.72.72-1.53.72-2.43s-.23-1.68-.7-2.4c-.46-.72-1.1-1.29-1.9-1.71-.8-.42-1.7-.62-2.69-.62h-.59v9.5c1.18,0,2.21-.21,3.1-.63Z"/><path class="cls-1" d="M14.08,48.86h2.26v-18.43l-2.38.38-.05-.24,4.48-.71v19h2.24v.24h-6.55v-.24ZM21.52,48.86h2.26v-10.14c0-.6-.05-1.09-.17-1.48-.11-.39-.29-.69-.55-.88-.26-.2-.61-.29-1.05-.29-.71,0-1.45.26-2.23.78s-1.57,1.3-2.37,2.36v-.28c.87-1.32,1.83-2.36,2.9-3.12,1.07-.76,2.09-1.14,3.06-1.14.57,0,1.03.14,1.39.41s.63.7.8,1.26c.17.57.26,1.31.26,2.22v10.32h1.96v.24h-6.27v-.24Z"/><path class="cls-1" d="M28.41,35.23h-1.44v-.28h6.27v.28h-2.55l3.79,11.62-.35,1.16h-1.41l-4.31-12.78ZM28.22,51.12h1.79c.77,0,1.41-.13,1.93-.4s.96-.68,1.33-1.25c.37-.57.7-1.32,1-2.26l3.82-11.97h-2.55v-.28h5.04v.28h-1.98l-3.96,11.52c-.5,1.48-.94,2.62-1.31,3.42-.37.8-.88,1.49-1.53,2.06-.65.57-1.49.86-2.51.86h-1.08v-1.98Z"/><path class="cls-1" d="M42.98,48.74c-.74-.38-1.34-.94-1.8-1.68-.46-.75-.7-1.65-.7-2.72l2.08-.49c0,.99.16,1.87.47,2.65s.74,1.38,1.27,1.82,1.11.65,1.72.65c.74,0,1.33-.29,1.78-.86.45-.57.67-1.24.67-1.99,0-.65-.17-1.19-.51-1.64-.34-.45-.76-.82-1.26-1.11s-1.16-.62-1.98-.98c-.87-.39-1.55-.74-2.05-1.04-.5-.3-.93-.68-1.27-1.14-.35-.46-.52-1.03-.52-1.71,0-.72.2-1.38.6-1.97s.94-1.05,1.6-1.38c.67-.33,1.37-.49,2.11-.49.82,0,1.57.2,2.26.61.69.41,1.26,1,1.72,1.79.46.79.74,1.71.85,2.78h-2.14c-.14-1-.38-1.88-.72-2.62s-.74-1.3-1.2-1.7c-.46-.39-.94-.59-1.43-.59-.55,0-1,.22-1.34.67-.35.45-.52,1.03-.52,1.73s.17,1.27.51,1.73.76.83,1.26,1.11c.5.27,1.17.59,2,.93.85.36,1.53.68,2.04.97.51.28.94.66,1.29,1.14.34.48.52,1.08.52,1.8,0,.87-.25,1.62-.74,2.28s-1.13,1.15-1.9,1.5c-.77.35-1.55.52-2.33.52s-1.6-.19-2.33-.56Z"/><path class="cls-1" d="M51.29,48.86h2.26v-13.65l-2.38.38-.05-.24,4.48-.71v14.21h2.24v.24h-6.55v-.24ZM53.48,32.35c-.27-.27-.4-.61-.4-1s.13-.71.4-1c.27-.29.61-.44,1.04-.44s.75.15,1.03.44c.27.29.41.62.41,1s-.13.73-.4,1-.61.41-1.04.41-.77-.14-1.04-.41Z"/><path class="cls-1" d="M61.47,48.31c-.91-.66-1.65-1.55-2.2-2.67s-.84-2.35-.84-3.69.28-2.54.84-3.67c.56-1.12,1.3-2.01,2.21-2.66.92-.65,1.88-.98,2.89-.98s1.99.33,2.9.99c.91.66,1.65,1.55,2.2,2.67s.84,2.35.84,3.69-.28,2.54-.84,3.67c-.56,1.12-1.3,2.01-2.21,2.66-.92.65-1.88.98-2.89.98s-1.99-.33-2.9-.99ZM66.55,48.23c.49-.49.89-1.19,1.19-2.07s.45-1.91.45-3.05c0-1.33-.2-2.63-.61-3.89-.41-1.26-.95-2.28-1.63-3.06-.68-.78-1.4-1.18-2.17-1.18-.57,0-1.1.25-1.59.74s-.89,1.19-1.19,2.08-.45,1.91-.45,3.05c0,1.34.2,2.63.61,3.89.41,1.26.95,2.28,1.63,3.06.67.79,1.4,1.18,2.17,1.18.57,0,1.1-.25,1.59-.74Z"/><path class="cls-1" d="M74.2,48.47c-.57-.56-.85-1.45-.85-2.67v-9.88h-2.92l4.93-4.34v3.37h4.41l-.12.97h-4.29v9.92c0,1.02.17,1.77.49,2.26.33.49.8.73,1.41.73.5,0,1.02-.14,1.54-.41.53-.27,1-.64,1.43-1.1l.19.19c-.6.6-1.21,1.05-1.85,1.34s-1.32.45-2.04.45c-.99,0-1.77-.28-2.33-.84Z"/><path class="cls-1" d="M80.36,48.86h2.26v-18.43l-2.38.38-.05-.24,4.48-.71v19h2.24v.24h-6.55v-.24ZM87.81,48.86h2.26v-10.14c0-.6-.05-1.09-.17-1.48-.11-.39-.29-.69-.55-.88-.26-.2-.61-.29-1.05-.29-.71,0-1.45.26-2.23.78s-1.57,1.3-2.37,2.36v-.28c.87-1.32,1.83-2.36,2.9-3.12,1.07-.76,2.09-1.14,3.06-1.14.57,0,1.03.14,1.39.41s.63.7.8,1.26c.17.57.26,1.31.26,2.22v10.32h1.96v.24h-6.27v-.24Z"/><path class="cls-1" d="M97.04,48.39c-.79-.61-1.39-1.43-1.78-2.44-.39-1.01-.59-2.1-.59-3.26,0-1.32.24-2.6.72-3.84.48-1.24,1.15-2.25,2-3.03.86-.78,1.82-1.17,2.89-1.17.86,0,1.56.26,2.1.79.53.53.92,1.17,1.16,1.93.24.76.38,1.55.43,2.35h-8.13l.09-.33h5.99c0-1.63-.16-2.78-.48-3.44s-.84-.99-1.57-.99c-.63,0-1.19.29-1.67.88-.49.59-.86,1.38-1.12,2.37s-.39,2.08-.39,3.25c0,1.41.19,2.62.58,3.62.39,1,.9,1.75,1.54,2.26.65.51,1.36.77,2.15.77.86,0,1.65-.29,2.37-.87s1.28-1.33,1.68-2.24l.21.12c-.58,1.33-1.3,2.37-2.14,3.1-.85.73-1.89,1.1-3.11,1.1-1.15,0-2.12-.31-2.91-.92Z"/><path class="cls-1" d="M105.26,48.86h2.26v-13.65l-2.38.38-.05-.24,4.48-.71v14.21h2.8v.24h-7.12v-.24ZM110.47,37.68c.5-.9,1.09-1.59,1.75-2.09.67-.49,1.44-.74,2.32-.74h1.13l-.26,1.98h-1.51c-.97,0-1.78.22-2.43.66-.65.44-1.15,1.01-1.52,1.72-.37.71-.7,1.57-.98,2.57l.02-.73c.47-1.35.96-2.48,1.46-3.37Z"/><path class="cls-1" d="M116.9,49.06c-.43-.23-.76-.54-.99-.94-.23-.4-.34-.85-.34-1.36,0-.85.34-1.51,1.01-2,.68-.49,1.61-.86,2.79-1.13,1.19-.27,2.9-.56,5.15-.87v.26c-1.49.2-2.72.43-3.69.68-.97.25-1.73.59-2.29,1.01-.56.42-.84.97-.84,1.65,0,.52.17.94.51,1.27.34.33.87.49,1.59.49.67,0,1.43-.15,2.26-.44.83-.29,1.65-.67,2.45-1.14v.07c-1.02.86-2.08,1.54-3.18,2.04-1.1.49-2.07.74-2.92.74-.58,0-1.09-.12-1.52-.34ZM124.01,48.8c-.32-.34-.48-.85-.48-1.54v-8.93c0-1.07-.18-1.89-.54-2.46s-.9-.86-1.6-.86c-.8,0-1.43.36-1.87,1.08-.45.72-.74,1.59-.87,2.59-.13,1.01-.16,1.95-.08,2.83l-2.21.38c0-1.82.26-3.27.79-4.34.53-1.07,1.21-1.82,2.04-2.25.83-.43,1.77-.65,2.8-.65.74,0,1.37.12,1.89.36.52.24.94.68,1.25,1.33.31.65.47,1.56.47,2.72v8.3c0,.39.08.69.25.88.17.2.4.29.7.29.39,0,.84-.18,1.33-.53s.97-.84,1.43-1.47l.21.17c-.6.82-1.28,1.46-2.05,1.92-.77.46-1.48.7-2.14.7-.53,0-.96-.17-1.28-.51Z"/><path class="cls-1" d="M128.37,52.98h2.26v-17.77l-2.38.38-.05-.24,4.48-.71v11.95c.27.69.66,1.22,1.17,1.6s1.06.57,1.66.57c1.73,0,2.9-1.05,3.52-3.16s.53-4.21-.26-6.31-2.1-3.15-3.92-3.15c-.65,0-1.18.13-1.6.39-.42.26-.94.67-1.55,1.24v-.1c.63-.72,1.16-1.29,1.59-1.7.43-.41.91-.73,1.43-.98s1.09-.37,1.72-.37c2.17,0,3.65,1.21,4.44,3.64s.66,4.84-.41,7.22c-1.07,2.39-2.86,3.58-5.37,3.58-.93,0-1.73-.2-2.4-.59v4.48h3.09v.24h-7.4v-.24Z"/><path class="cls-1" d="M142.11,48.86h2.26v-13.65l-2.38.38-.05-.24,4.48-.71v14.21h2.24v.24h-6.55v-.24ZM144.3,32.35c-.27-.27-.4-.61-.4-1s.13-.71.4-1c.27-.29.61-.44,1.04-.44s.75.15,1.03.44c.27.29.41.62.41,1s-.13.73-.4,1-.61.41-1.04.41-.77-.14-1.04-.41Z"/><path class="cls-1" d="M151.63,48.39c-.79-.61-1.39-1.43-1.78-2.44-.39-1.01-.59-2.1-.59-3.26,0-1.32.24-2.6.72-3.84.48-1.24,1.15-2.25,2-3.03.86-.78,1.82-1.17,2.89-1.17.86,0,1.56.26,2.1.79.53.53.92,1.17,1.16,1.93.24.76.38,1.55.43,2.35h-8.13l.09-.33h5.99c0-1.63-.16-2.78-.48-3.44s-.84-.99-1.57-.99c-.63,0-1.19.29-1.67.88-.49.59-.86,1.38-1.12,2.37s-.39,2.08-.39,3.25c0,1.41.19,2.62.58,3.62.39,1,.9,1.75,1.54,2.26.65.51,1.36.77,2.15.77.86,0,1.65-.29,2.37-.87s1.28-1.33,1.68-2.24l.21.12c-.58,1.33-1.3,2.37-2.14,3.1-.85.73-1.89,1.1-3.11,1.1-1.15,0-2.12-.31-2.91-.92Z"/><path class="cls-1" d="M0,77.87h2.36v-16.03H0v-.24h6.29c1.21,0,2.24.17,3.08.52.84.35,1.47.8,1.9,1.37.43.56.64,1.16.64,1.79,0,.68-.24,1.32-.72,1.92-.48.6-1.17,1.12-2.07,1.54-.9.43-1.98.7-3.22.83,1.37.08,2.54.33,3.54.77.99.43,1.74.97,2.25,1.63.51.65.77,1.34.77,2.06s-.25,1.37-.75,1.99c-.5.62-1.29,1.12-2.36,1.51-1.07.39-2.4.58-3.98.58H0v-.24ZM7.57,68.89c.77-.38,1.34-.86,1.7-1.45s.54-1.19.54-1.8c0-.68-.19-1.31-.57-1.89-.38-.58-.92-1.05-1.62-1.39-.7-.35-1.5-.52-2.39-.52h-.57v7.61c1.16,0,2.13-.19,2.9-.56ZM7.99,77.34c.68-.36,1.17-.81,1.5-1.37.32-.56.48-1.14.48-1.75,0-.75-.21-1.48-.64-2.18-.42-.7-1.04-1.27-1.84-1.72-.8-.45-1.74-.67-2.83-.67v8.23h.8c1,0,1.85-.18,2.52-.53Z"/><path class="cls-1" d="M13.08,77.87h2.26v-13.65l-2.38.38-.05-.24,4.48-.71v14.21h2.24v.24h-6.55v-.24ZM15.27,61.36c-.27-.27-.4-.61-.4-1s.13-.71.4-1c.27-.29.61-.44,1.04-.44s.75.15,1.03.44c.27.29.41.62.41,1s-.13.73-.4,1-.61.41-1.04.41-.77-.14-1.04-.41Z"/><path class="cls-1" d="M23.15,77.33c-.91-.66-1.65-1.55-2.2-2.67s-.84-2.35-.84-3.69.28-2.54.84-3.67c.56-1.12,1.3-2.01,2.21-2.66.92-.65,1.88-.98,2.89-.98s1.99.33,2.9.99c.91.66,1.65,1.55,2.2,2.67s.84,2.35.84,3.69-.28,2.54-.84,3.67c-.56,1.12-1.3,2.01-2.21,2.66-.92.65-1.88.98-2.89.98s-1.99-.33-2.9-.99ZM28.22,77.25c.49-.49.89-1.19,1.19-2.07s.45-1.91.45-3.05c0-1.33-.2-2.63-.61-3.89-.41-1.26-.95-2.28-1.63-3.06-.68-.78-1.4-1.18-2.17-1.18-.57,0-1.1.25-1.59.74s-.89,1.19-1.19,2.08-.45,1.91-.45,3.05c0,1.34.2,2.63.61,3.89.41,1.26.95,2.28,1.63,3.06.67.79,1.4,1.18,2.17,1.18.57,0,1.1-.25,1.59-.74Z"/><path class="cls-1" d="M32.27,77.87h2.26v-18.43l-2.38.38-.05-.24,4.48-.71v19h2.24v.24h-6.55v-.24ZM35.31,70.17h3.16v.28h-3.16v-.28ZM40.33,77.87h1.84l-4.52-7.57,4.76-6.11h-2.57v-.24h5.02v.24h-1.81l-3.96,4.57,5.56,9.1h1.41v.24h-5.73v-.24Z"/><path class="cls-1" d="M46.46,77.87h2.26v-13.65l-2.38.38-.05-.24,4.48-.71v14.21h2.24v.24h-6.55v-.24ZM48.65,61.36c-.27-.27-.4-.61-.4-1s.13-.71.4-1c.27-.29.61-.44,1.04-.44s.75.15,1.03.44c.27.29.41.62.41,1s-.13.73-.4,1-.61.41-1.04.41-.77-.14-1.04-.41Z"/><path class="cls-1" d="M53.64,77.87h2.26v-13.65l-2.38.38-.05-.24,4.48-.71v14.21h2.24v.24h-6.55v-.24ZM61.09,77.87h2.26v-10.14c0-.6-.05-1.09-.17-1.48-.11-.39-.29-.69-.55-.88-.26-.2-.61-.29-1.05-.29-.71,0-1.45.26-2.23.78s-1.57,1.3-2.37,2.36v-.28c.87-1.32,1.83-2.36,2.9-3.12,1.07-.76,2.09-1.14,3.06-1.14.57,0,1.03.14,1.39.41s.63.7.8,1.26c.17.57.26,1.31.26,2.22v10.32h1.96v.24h-6.27v-.24Z"/><path class="cls-1" d="M70.2,77.4c-.79-.61-1.39-1.43-1.78-2.44-.39-1.01-.59-2.1-.59-3.26,0-1.32.24-2.6.72-3.84.48-1.24,1.15-2.25,2-3.03.86-.78,1.82-1.17,2.89-1.17.86,0,1.56.26,2.1.79.53.53.92,1.17,1.16,1.93.24.76.38,1.55.43,2.35h-8.13l.09-.33h5.99c0-1.63-.16-2.78-.48-3.44s-.84-.99-1.57-.99c-.63,0-1.19.29-1.67.88-.49.59-.86,1.38-1.12,2.37s-.39,2.08-.39,3.25c0,1.41.19,2.62.58,3.62.39,1,.9,1.75,1.54,2.26.65.51,1.36.77,2.15.77.86,0,1.65-.29,2.37-.87s1.28-1.33,1.68-2.24l.21.12c-.58,1.33-1.3,2.37-2.14,3.1-.85.73-1.89,1.1-3.11,1.1-1.15,0-2.12-.31-2.91-.92Z"/><path class="cls-1" d="M78.3,77.87h2.26v-13.65l-2.38.38-.05-.24,4.48-.71v14.21h2.24v.24h-6.55v-.24ZM85.3,77.87h2.24v-10.14c0-.96-.1-1.64-.29-2.05-.2-.41-.61-.61-1.24-.61-.68,0-1.36.25-2.06.75-.7.5-1.47,1.3-2.3,2.38v-.28c.58-.88,1.19-1.64,1.83-2.29.64-.65,1.29-1.14,1.94-1.47.66-.34,1.31-.51,1.96-.51.77,0,1.32.24,1.64.73.32.49.51,1.29.55,2.43h.02v11.06h2.24v.24h-6.53v-.24ZM92.27,77.87h2.24v-10.14c0-.96-.1-1.64-.29-2.05-.2-.41-.61-.61-1.24-.61-.68,0-1.36.25-2.06.75-.7.5-1.46,1.3-2.3,2.38v-.28c.58-.88,1.19-1.64,1.83-2.29.64-.65,1.28-1.14,1.94-1.47s1.31-.51,1.96-.51c.82,0,1.39.3,1.72.91.33.6.49,1.6.49,2.98v10.32h1.96v.24h-6.25v-.24Z"/><path class="cls-1" d="M100.32,78.07c-.43-.23-.76-.54-.99-.94-.23-.4-.34-.85-.34-1.36,0-.85.34-1.51,1.01-2,.68-.49,1.61-.86,2.79-1.13,1.19-.27,2.9-.56,5.15-.87v.26c-1.49.2-2.72.43-3.69.68-.97.25-1.73.59-2.29,1.01-.56.42-.84.97-.84,1.65,0,.52.17.94.51,1.27.34.33.87.49,1.59.49.67,0,1.43-.15,2.26-.44.83-.29,1.65-.67,2.45-1.14v.07c-1.02.86-2.08,1.54-3.18,2.04-1.1.49-2.07.74-2.92.74-.58,0-1.09-.12-1.52-.34ZM107.44,77.81c-.32-.34-.48-.85-.48-1.54v-8.93c0-1.07-.18-1.89-.54-2.46s-.9-.86-1.6-.86c-.8,0-1.43.36-1.87,1.08-.45.72-.74,1.59-.87,2.59-.13,1.01-.16,1.95-.08,2.83l-2.21.38c0-1.82.26-3.27.79-4.34.53-1.07,1.21-1.82,2.04-2.25.83-.43,1.77-.65,2.8-.65.74,0,1.37.12,1.89.36.52.24.94.68,1.25,1.33.31.65.47,1.56.47,2.72v8.3c0,.39.08.69.25.88.17.2.4.29.7.29.39,0,.84-.18,1.33-.53s.97-.84,1.43-1.47l.21.17c-.6.82-1.28,1.46-2.05,1.92-.77.46-1.48.7-2.14.7-.53,0-.96-.17-1.28-.51Z"/><path class="cls-1" d="M114.81,77.48c-.57-.56-.85-1.45-.85-2.67v-9.88h-2.92l4.93-4.34v3.37h4.41l-.12.97h-4.29v9.92c0,1.02.17,1.77.49,2.26.33.49.8.73,1.41.73.5,0,1.02-.14,1.54-.41.53-.27,1-.64,1.43-1.1l.19.19c-.6.6-1.21,1.05-1.85,1.34s-1.32.45-2.04.45c-.99,0-1.77-.28-2.33-.84Z"/><path class="cls-1" d="M121.31,77.87h2.26v-13.65l-2.38.38-.05-.24,4.48-.71v14.21h2.24v.24h-6.55v-.24ZM123.5,61.36c-.27-.27-.4-.61-.4-1s.13-.71.4-1c.27-.29.61-.44,1.04-.44s.75.15,1.03.44c.27.29.41.62.41,1s-.13.73-.4,1-.61.41-1.04.41-.77-.14-1.04-.41Z"/><path class="cls-1" d="M128.38,77.87h2.26v-18.43l-2.38.38-.05-.24,4.48-.71v19h2.24v.24h-6.55v-.24ZM131.43,70.17h3.16v.28h-3.16v-.28ZM136.44,77.87h1.84l-4.52-7.57,4.76-6.11h-2.57v-.24h5.02v.24h-1.81l-3.96,4.57,5.56,9.1h1.41v.24h-5.73v-.24Z"/></g></svg>
